<?xml version="1.0" encoding="UTF-8"?>
<svg width="1011px" height="792px" viewBox="0 0 1011 792" version="1.1" xmlns="http://www.w3.org/2000/svg" xmlns:xlink="http://www.w3.org/1999/xlink">
    <!-- Generator: Sketch 54.1 (76490) - https://sketchapp.com -->
    <title>Artboard</title>
    <desc>Created with Sketch.</desc>
    <defs>
        <rect id="path-1" x="0" y="0" width="251" height="516" rx="36.4499981"></rect>
        <filter x="-28.7%" y="-7.8%" width="149.4%" height="124.0%" filterUnits="objectBoundingBox" id="filter-2">
            <feOffset dx="-10" dy="22" in="SourceAlpha" result="shadowOffsetOuter1"></feOffset>
            <feGaussianBlur stdDeviation="17" in="shadowOffsetOuter1" result="shadowBlurOuter1"></feGaussianBlur>
            <feColorMatrix values="0 0 0 0 0   0 0 0 0 0   0 0 0 0 0  0 0 0 0.1 0" type="matrix" in="shadowBlurOuter1"></feColorMatrix>
        </filter>
        <rect id="path-3" x="0" y="0" width="319" height="504"></rect>
    </defs>
    <g id="Artboard" stroke="none" stroke-width="1" fill="none" fill-rule="evenodd">
        <g id="Scene/Home">
            <g id="Clock" transform="translate(709.348649, 107.729412)">
                <circle id="Clock-Frame" fill="#F2F2F2" cx="53" cy="53" r="53"></circle>
                <circle id="Time" fill-opacity="0.1" fill="#000000" cx="53" cy="11" r="3"></circle>
                <circle id="Time" fill-opacity="0.1" fill="#000000" cx="11" cy="53" r="3"></circle>
                <circle id="Time" fill-opacity="0.1" fill="#000000" cx="95" cy="53" r="3"></circle>
                <circle id="Time" fill-opacity="0.1" fill="#000000" cx="53" cy="95" r="3"></circle>
                <polygon id="Hand" fill="#AFB9C5" points="53 17 55 52 51 52"></polygon>
                <polygon id="Hand" fill="#AFB9C5" transform="translate(62.213203, 62.213203) rotate(135.000000) translate(-62.213203, -62.213203) " points="62.2132034 50.2132034 64.2132034 74.2132034 60.2132034 74.2132034"></polygon>
                <circle id="Time" fill="#C5CFD6" cx="53" cy="53" r="4"></circle>
            </g>
            <g id="Background-Shape-2" opacity="0.345889137" transform="translate(39.620270, 284.188235)">
                <path d="M0.314656077,200.777658 C10.8287585,111.038582 574.955113,-62.1672887 679.683204,22.8317905 C784.411296,107.83087 683.728225,267.351906 464.256829,308.201184 C244.785433,349.050462 -10.1994463,290.516733 0.314656077,200.777658 Z" id="Background-Shape" fill="#F2F2F2" transform="translate(360.647297, 160.729412) scale(-1, 1) translate(-360.647297, -160.729412) "></path>
                <path d="M244.226969,259.086122 C253.936394,182.849266 774.88839,35.7041032 871.601312,107.914146 C968.314234,180.124189 943.834307,332.009648 741.159745,366.712708 C538.485182,401.415768 234.517543,335.322978 244.226969,259.086122 Z" id="Background-Shape" fill="#DDE3E9"></path>
            </g>
            <g id="Hanging-Lamp" transform="translate(52.283108, 0.000000)">
                <g id="Light" transform="translate(0.000000, 187.261705)">
                    <ellipse id="Hanging-Lamp-Light" fill="#F2F2F2" cx="49.5" cy="34.5" rx="42.5" ry="22.5"></ellipse>
                    <path d="M99,50 C99,22.3857625 76.8380951,0 49.5,0 C22.1619049,0 -7.10542736e-15,22.3857625 -7.10542736e-15,50" id="Hanging-Lamp" fill="#DDE3E9"></path>
                </g>
                <rect id="Wire" fill="#DDE3E9" x="47" y="0" width="5" height="194.588235"></rect>
            </g>
            <g id="Hanging-Lamp" opacity="0.7" transform="translate(170.664865, 0.000000)">
                <g id="Light" transform="translate(0.000000, 139.188235)">
                    <ellipse id="Hanging-Lamp-Light" fill="#F2F2F2" cx="37" cy="27.8421053" rx="31.7676768" ry="18.1578947"></ellipse>
                    <path d="M74,40.3508772 C74,18.0657031 57.4345357,0 37,0 C16.5654643,0 -7.10542736e-15,18.0657031 -7.10542736e-15,40.3508772" id="Hanging-Lamp" fill="#DDE3E9"></path>
                </g>
                <rect id="Wire" fill="#DDE3E9" x="35" y="0" width="5" height="162.188235"></rect>
            </g>
            <g id="Lamp" transform="translate(715.897297, 234.354098)">
                <path d="M60,40.8887657 L97.9999223,15.05728 C100.714347,13.212076 104.280444,13.212076 106.994868,15.05728 L200.350351,78.518221 C204.732306,81.4969748 207.355405,86.4518769 207.355405,91.7504149 L207.355405,481.645902" id="Body" stroke="#CBCBCB" stroke-width="8"></path>
                <rect id="Lamp-Base" fill="#AFB9C5" x="177.355405" y="480.645902" width="59" height="7" rx="3"></rect>
                <g id="Lamp-Top" transform="translate(48.083261, 49.083261) rotate(45.000000) translate(-48.083261, -49.083261) translate(14.583261, 14.583261)">
                    <path d="M33.0303119,1.38390164 L33.0303119,1.38390164 C51.2557087,1.38390164 66.0303119,16.1585049 66.0303119,34.3839016 L66.0303119,62.3839016 L0.03031192,62.3839016 L0.03031192,34.3839016 C0.03031192,16.1585049 14.8049152,1.38390164 33.0303119,1.38390164 Z" id="Lamp" fill="#C5CFD6"></path>
                    <ellipse id="Lamp" fill="#F2F2F2" cx="33.2089288" cy="61.4454002" rx="33" ry="6.5"></ellipse>
                </g>
            </g>
            <g id="Big-Leaf-Plant" transform="translate(46.762162, 483.000000)">
                <g id="Big-Ass-Leaf" transform="translate(22.000000, 0.000000)">
                    <path d="M25.2579539,1.17309307 C28.1225306,0.823121436 31.1799041,0.946659994 33.8438766,2.07736611 C39.5085416,4.48200834 41.1187317,11.1741436 41.0410516,16.6135182 C40.9573065,22.4680411 39.714051,28.8626602 44.1651162,33.5797909 C46.2111822,35.7484553 48.7563294,37.4081152 50.7654292,39.6166003 C52.9121851,41.9766643 54.5966293,44.6770468 55.8438343,47.5768289 C58.1338507,52.9031791 59.2578307,59.1668975 57.163736,64.7542738 C55.3199224,69.6736307 50.6810935,74.1137719 51.6834319,79.7075568 C52.728959,85.5429164 58.61221,90.0040977 62.290444,94.3505245 C66.4531656,99.2693182 70.2859018,105.555987 70.9155339,112.006469 C71.5192882,118.188324 68.8284074,124.440381 64.698769,129.113358 C56.447741,138.450738 44.0451661,143.028231 31.539564,142.999869 C26.2300259,142.987569 20.2185507,142.747768 15.6365623,139.894514 C14.2204324,139.012594 13.4733329,138.02316 12.6314834,136.647706 C11.8766749,135.414323 10.8795787,134.61206 9.72545995,133.739319 C7.18986484,131.822394 5.35871537,129.238844 4.19012177,126.346829 C-0.347779789,115.114023 3.27916675,101.217665 9.6312018,91.2428455 C11.1363537,88.8796069 12.3686453,86.6054629 11.6374364,83.7886216 C10.8743978,80.8481806 8.99901449,78.1960629 7.34025921,75.6685039 C5.70114537,73.1704875 3.82987864,70.7874137 2.54875756,68.0865102 C1.20699289,65.2571214 0.829162714,62.2942757 1.0662375,59.1977452 C1.51180331,53.3811147 4.02273241,48.0134805 7.57766153,43.3356252 C11.0017161,38.8298272 15.0221277,34.5184764 15.0311362,28.6145236 C15.0410288,22.3571379 10.8577315,16.7908073 12.6398779,10.4289791 C13.3778032,7.79466143 14.8599543,5.09183557 17.2485499,3.51252303 C19.5392578,1.99784616 22.5638536,1.50223723 25.2579539,1.17309307 Z" id="leaf" fill="#DDE3E9"></path>
                    <path d="M23.3861597,11.1764309 C23.4398778,10.3360403 24.436749,9.83200515 25.2215077,10.0513011 C26.2544664,10.3400972 26.2346007,11.3052716 26.2073293,12.1651664 C26.1237304,14.8082784 26.5062963,17.3769517 27.1416559,19.9415199 C28.4621824,25.2735426 30.9026929,30.1861254 32.8361895,35.3079558 C34.7680009,40.4254986 35.6748339,45.7092068 34.5415523,51.1242976 C33.4732058,56.2299732 31.7948008,61.2033156 30.7014513,66.3154357 C29.7377524,70.8211129 28.7123306,75.5726024 30.1799208,80.0668063 C31.5921035,84.3928044 34.714245,87.9158566 36.9624576,91.8252937 C41.6165172,99.9180775 43.681267,108.896054 43.9574365,118.135184 C44.0854233,122.425481 43.970168,126.755229 42.9748682,130.963076 C42.4020068,133.385966 41.6321776,136.660394 39.5559237,138.333163 C38.5985099,139.104565 36.9610282,139.371304 36.1552196,138.228946 C35.3986826,137.157504 36.0623713,135.498805 36.3025457,134.356816 C37.3426754,129.413332 37.551926,124.361287 37.302904,119.341696 C37.061891,114.479563 36.4874289,109.625549 34.9571817,104.98201 C33.536907,100.672738 31.379247,96.8021749 28.8398113,93.0324782 C26.2521442,89.1908938 23.562037,85.3411131 22.4928221,80.7892312 C21.4064684,76.1661343 22.2890218,71.4619848 23.4691168,66.9271792 C24.717096,62.1306341 26.3517536,57.4716876 28.0416981,52.8051023 C29.688607,48.2578629 30.2723555,43.9553657 29.3631928,39.1961513 C27.5671855,29.7935298 22.7598022,20.9681166 23.3861597,11.1764309 Z" id="middle-thing" fill="#C5CFD6"></path>
                </g>
                <g id="Big-Ass-Leaf" transform="translate(32.000000, 11.000000)">
                    <path d="M90.8923323,1.58227349 C94.4371815,2.65860484 97.957883,4.39521888 100.484813,7.11827966 C105.857908,12.908958 104.209295,21.6609092 101.243138,28.053245 C98.0504357,34.9333908 93.2122671,41.8490652 95.9396345,49.7432112 C97.193196,53.3723397 99.3011711,56.6591395 100.490327,60.3161304 C101.760821,64.2239944 102.30919,68.2938229 102.239325,72.3720051 C102.109984,79.8624039 100.11754,87.8547607 94.7080978,93.373143 C89.9453006,98.2317101 82.1575199,101.069515 80.3765031,108.20631 C78.5184553,115.651265 83.0609213,123.987774 85.0777737,131.041472 C87.360351,139.024107 88.5328812,148.452761 85.8618992,156.408818 C83.3025511,164.033728 76.8418128,170.027718 69.5281945,173.405772 C54.9151643,180.156033 37.9486721,179.117398 23.2958182,172.578162 C17.0747521,169.801475 10.1506305,166.390577 6.28452896,160.632591 C5.08969654,158.852907 4.73639937,157.294118 4.47600508,155.229521 C4.2426077,153.378223 3.49715739,151.910733 2.60478713,150.278208 C0.643995898,146.69213 -0.138196518,142.68415 0.0197662548,138.65605 C0.634485801,123.011122 12.2336238,108.463743 24.9562471,99.9717321 C27.9707605,97.9599181 30.6181436,95.9115216 31.2493822,92.1998602 C31.9086177,88.325468 31.1107853,84.2133878 30.5011993,80.3613088 C29.8990358,76.5543855 28.9638254,72.7626253 28.8887906,68.9019982 C28.8105393,64.857873 29.9334288,61.1573785 31.8482022,57.6186721 C35.4452563,50.9715661 41.2274568,45.9299031 47.869576,42.2471027 C54.2672493,38.6996981 61.2616135,35.6924899 64.392784,28.7150074 C67.7118026,21.3200057 65.7473551,12.5608727 71.200258,5.96432077 C73.4581719,3.232793 76.6252004,0.8074086 80.2615533,0.182273212 C83.7489295,-0.417345716 87.5584437,0.569996664 90.8923323,1.58227349 Z" id="leaf" fill="#DDE3E9"></path>
                    <path d="M83.6512541,13.8108813 C84.1542014,12.8438162 85.5838278,12.76941 86.3866021,13.4404234 C87.4431996,14.3238303 86.9144837,15.4564117 86.4322458,16.4604357 C84.9502268,19.5466855 84.0522837,22.7891134 83.4520845,26.1591764 C82.2036693,33.1656731 82.4845328,40.2624713 82.0629519,47.3413268 C81.6416462,54.4142215 79.9347993,61.1466733 75.7736201,66.9654284 C71.8504189,72.4517974 67.2831774,77.4617029 63.3273648,82.942599 C59.8407636,87.7732777 56.1532511,92.8627051 55.5155862,98.9541078 C54.9012266,104.817274 56.7068601,110.625805 57.2882412,116.433853 C58.4918732,128.456945 56.2042044,140.171178 51.6883608,151.25723 C49.5910773,156.405033 47.1887071,161.472065 43.8211358,165.93348 C41.8823541,168.502498 39.2672836,171.9767 35.9634293,172.869426 C34.4399139,173.281139 32.3854941,172.738768 32.0415379,170.963598 C31.7180544,169.298235 33.362815,167.681804 34.2417421,166.455303 C38.0470052,161.146218 40.9375702,155.273083 43.2752764,149.198186 C45.5398829,143.313954 47.4103318,137.264567 48.0529422,130.963476 C48.6490797,125.115876 48.1532232,119.401324 47.1581268,113.606123 C46.1442823,107.70051 45.0149464,101.731498 46.1486425,95.7805914 C47.2995951,89.7363667 50.7952573,84.6281193 54.5501475,79.8763654 C58.5214952,74.8502305 62.8729252,70.1897143 67.2930034,65.5491295 C71.6002552,61.0273221 74.5361665,56.238113 75.9655983,50.1255641 C78.7899076,38.049307 77.7906897,25.0782485 83.6512541,13.8108813 Z" id="middle-thing" fill="#C5CFD6"></path>
                </g>
                <g id="Big-Ass-Leaf" transform="translate(0.000000, 57.000000)">
                    <path d="M13.3059765,-1.56319402e-13 C19.200266,-1.56319402e-13 24.3823319,3.12436119 27.9530894,7.55793367 C32.133,12.74806 32.977213,19.0862362 34.674537,25.2719426 C35.5191207,28.3503093 36.9717453,31.4062221 39.5173606,33.4977007 C41.832736,35.3997692 44.7720948,35.7804002 47.5435009,36.7097048 C53.0822347,38.5668654 57.5546724,43.0406377 59.3209572,48.4994874 C61.4757949,55.1581758 59.1934169,61.8733613 59.5864189,68.6215035 C59.9471652,74.818799 66.0576058,78.6852277 70.9738392,81.6560327 C75.8214826,84.5855514 80.1886254,87.3278329 81.6486651,93.0347628 C83.196945,99.0875562 83.7163751,105.843666 81.5719185,111.822941 C78.0015318,121.778741 67.5524967,126.162697 57.4560511,126.842473 C48.2931709,127.459233 36.7719075,126.490815 29.8906637,119.839732 C25.7730402,115.859585 24.2818569,110.293173 24.4668644,104.75501 C24.581799,101.311223 25.2639913,97.8993066 26.1460214,94.571411 C26.7711171,92.2126578 27.6157008,89.864045 27.8563219,87.4267028 C28.4958771,80.9422138 22.5025956,79.6967428 17.4009839,77.9163603 C10.9183036,75.6535796 6.37987122,71.3797201 3.22399048,65.4254344 C0.285002382,59.8814769 -0.948134291,53.6581058 0.813701389,47.5542477 C1.71352782,44.4374919 3.34559866,41.6097404 5.55901596,39.2046306 C6.53336448,38.1460346 7.90664718,37.2630865 8.78608199,36.1508907 C9.60693725,35.1122136 9.42823254,33.766424 9.1453452,32.5499259 C7.83731568,26.930639 3.7619584,22.2775971 2.30451394,16.6684507 C0.988698535,11.6054427 1.76654602,5.30420703 6.395443,2.0378788 C8.39530446,0.626538178 10.8615778,0.0155729143 13.3059765,-1.56319402e-13 Z" id="leaf" fill="#C5CFD6"></path>
                    <path d="M21.3376913,14.6413767 C27.5850069,21.2960229 29.2831027,30.3249745 29.7814609,39.0761511 C30.0606151,43.9833868 29.7700594,49.1593434 31.2118042,53.919181 C32.4453787,57.993092 35.3373275,61.1072854 38.3182819,64.0505403 C44.3188091,69.9754389 51.0107852,75.9988444 52.7658888,84.5736503 C53.7957065,89.6058303 53.1005796,94.8035164 54.523567,99.7802864 C55.8174594,104.303997 58.0955633,108.748395 60.8665085,112.568434 C63.097535,115.644601 66.0041955,117.999712 68.4430245,120.867276 C69.1870678,121.742611 70.2529291,123.031168 69.9458228,124.266849 C69.5864899,125.714031 67.7431162,126.172161 66.4352477,125.944726 C63.385884,125.414889 60.8190633,122.503142 58.8252627,120.38633 C55.9097752,117.290969 53.432328,113.961654 51.4186666,110.227085 C49.1832266,106.079656 47.3832523,101.678717 46.6141992,97.0257156 C45.8160904,92.1985167 46.2133058,87.1677853 44.3908963,82.535065 C41.3242463,74.7399845 33.8860201,70.1398585 28.5081649,64.0643023 C21.8077295,56.4937595 22.8070205,47.0715048 23.4933204,37.7589838 C23.8703073,32.6413346 24.2450873,26.8620233 21.6591415,22.1894658 C20.6719877,20.4058395 18.4711201,18.7428117 18.0466881,16.7154534 C17.6579319,14.857947 19.7797242,12.9808841 21.3376913,14.6413767 Z" id="middle-thing" fill="#AFB9C5"></path>
                </g>
                <path d="M28,181 C28.0003799,219.05849 34.211229,239 67.0000931,239 C99.7889571,239 105.999806,219.05849 106,181 L28,181 Z" id="Base" fill="#89C5CC"></path>
            </g>
            <g id="Table" transform="translate(207.327703, 465.000000)">
                <g id="Lamp" transform="translate(23.000000, 0.000000)">
                    <rect id="Lamp-Base" fill="#AFB9C5" x="21" y="144" width="38" height="9" rx="2"></rect>
                    <path d="M31,115 C35.2931455,101.08547 37.6987626,86.4188034 38.2168511,71 L41,71 L42.7831489,71 C43.3012374,86.4188034 45.7068545,101.08547 50,115 L56.5,115 C65.0604136,115 72,121.939586 72,130.5 C72,139.060414 65.0604136,146 56.5,146 L23.5,146 C14.9395864,146 8,139.060414 8,130.5 C8,121.939586 14.9395864,115 23.5,115 L31,115 Z" id="Lamp-Body" fill="#DDE3E9"></path>
                    <path d="M4.62222222,1.67861504 C16.0814815,0.559538347 27.5407407,1.45972368e-15 39,0 C50.4592593,0 61.9185185,0.559538347 73.3777778,1.67861504 L78,81.1330604 C65,82.3776868 52,83 39,83 C26,83 13,82.3776868 0,81.1330604 L4.62222222,1.67861504 Z" id="Shade" fill="#C5CFD6"></path>
                </g>
                <path d="M21,153 L104,153 L125,153 L125,257 L104,257 L104,175 L21,175 L21,257 L0,257 L0,153 L21,153 Z" fill="#F2F2F2"></path>
            </g>
            <g id="Plant" transform="translate(753.983108, 440.000000)">
                <g id="Succulents" transform="translate(13.000000, 0.000000)">
                    <path d="M3.38092413,0.208187006 C12.213925,21.197225 27.2292006,35.7805339 35.1818951,57.6048833 C39.8977667,70.5473636 41.863552,84.6195065 41.9827844,99.0319481 C42.0475621,106.860255 41.9112966,114.693588 41.8746494,122.521895 C41.8390346,130.156002 41.6315393,137.74129 40.9835037,145.326577 C40.3323712,152.952069 39.603299,160.486743 39.2817329,168.159259 C39.0313966,174.137461 38.9170678,181.09097 36.890634,186.544007 C35.2791907,190.880662 31.1834821,191.51603 30.0967128,186.256476 C29.4928087,183.332706 29.5689419,180.068279 29.6355262,177.063384 C29.7209502,173.208101 29.9452206,169.358561 30.0595494,165.503996 C30.5191876,150.036197 29.9232839,134.565527 30.2347849,119.091626 C30.5390596,103.9731 32.4823921,88.871087 30.3320805,73.8534305 C28.5564992,61.4519104 24.045542,50.802498 18.8615156,40.5931767 C13.873887,30.7708195 8.44546012,21.187174 5.07495258,10.0143908 C4.10715753,6.80560332 3.35898744,3.48051124 3,0.0301404047 C3.15691184,-0.0427294746 3.28388655,0.0164997376 3.38092413,0.208187006 Z" id="Thi-Succs!" fill="#C1DEE2"></path>
                    <path d="M0.973588404,41.6169557 C2.7226644,42.8799919 3.70001184,44.7275773 4.88222633,46.55055 C6.35238241,48.8169596 8.08078375,50.8630865 9.55056393,53.131137 C12.6152999,57.8596264 15.3078921,62.8785444 18.1016022,67.7986018 C23.4055915,77.1374401 27.4326388,87.0907728 29.4271794,97.8948808 C31.4946451,109.09156 32.052109,120.648403 32.9193169,132.012037 C33.8391512,144.05621 34.7653759,156.188167 34.8871684,168.278693 C34.9416743,173.695515 35.2345026,179.445837 34.5841907,184.824509 C34.1793433,188.173053 32.6682138,191.026883 29.2614062,190.999809 C22.0249003,190.94238 18.6274903,182.927289 17.2080811,176.353675 C15.118813,166.674363 14.7019367,156.392862 15.0327312,146.494087 C15.432316,134.55821 17.5039166,122.801595 18.4004449,110.911661 C19.3499755,98.3247808 18.8135622,85.9602344 14.4861685,74.1088605 C12.2999174,68.1197961 9.76257314,62.2743052 7.48422591,56.3250312 C6.51402064,53.7919851 5.71936199,51.1900238 4.40896463,48.831317 C2.95121334,46.2076145 1.14161698,43.8259359 -3.0475622e-14,41 C0.324404167,41.2059254 0.649184237,41.4114405 0.973588404,41.6169557 Z" id="Thi-Succs!" fill="#89C5CC"></path>
                    <path d="M84.3341427,16.5176702 C84.5560133,16.345237 84.7781571,16.1728402 85,16 C84.3609397,18.6926575 83.2065589,20.8798938 82.3241537,23.3413066 C81.5309592,25.5541267 81.1289139,28.058225 80.5946654,30.4769505 C79.3401416,36.1577567 77.8904265,41.7105156 76.7055048,47.4397171 C74.3598951,58.7767524 74.8035283,70.9901843 76.3418843,83.5681524 C77.7947507,95.4496261 80.092478,107.312713 81.1873452,119.191609 C82.0949201,129.04307 82.4850091,139.201741 81.6192928,148.601 C81.0309846,154.984369 79.1025548,162.605994 73.8481376,161.961759 C71.3744617,161.658503 70.0840672,158.681129 69.5641892,155.320205 C68.7291114,149.921644 68.5543005,144.245802 68.2287956,138.877693 C67.5023548,126.895908 67.3576487,114.950973 67.2142162,103.092499 C67.078414,91.904007 66.7045185,80.493842 67.4521172,69.5872699 C68.1731866,59.0630547 70.4284885,49.5797393 73.6530782,40.8297246 C75.3514544,36.2198206 76.9696914,31.5020505 78.8779164,27.1084404 C79.7930343,25.0009936 80.9110333,23.1387509 81.826535,21.0329683 C82.5626976,19.3391662 83.148338,17.6010976 84.3341427,16.5176702 Z" id="Thi-Succs!" fill="#C1DEE2"></path>
                    <path d="M3.20880772,76.3018223 C4.16572159,74.6953252 6.27206517,79.9934093 6.59263271,80.6597751 C6.45704992,80.3283084 6.32092787,79.9973172 6.18360206,79.666614 C8.08298767,82.8249267 9.82062484,86.1127294 10.9009829,89.7341519 C11.9700503,93.3191128 12.888301,96.9765376 13.89141,100.586979 C15.7735895,107.360999 18.2016657,113.942756 19.9069626,120.7778 C21.5685818,127.438224 21.9875459,133.985891 21.5852981,140.875198 C21.1672391,148.035491 20.9114736,155.305643 21.3991881,162.462075 C21.632116,165.880018 22.7427231,169.063767 23.5039187,172.354313 C24.2660416,175.648102 24.8662939,178.985809 25.7672782,182.238759 C25.974095,181.814996 26.0004407,183.231705 25.9999945,183.339248 C25.99434,184.151918 25.8808641,184.833382 25.6194022,185.603962 C24.9475372,187.585538 23.69062,189.268993 21.7779741,189.815552 C18.3215161,190.803119 15.1122443,187.659032 13.9975999,184.339008 C12.398575,179.575285 11.5174472,174.310953 10.7554023,169.304056 C10.0567643,164.712777 9.89144111,160.094092 10.0990013,155.439587 C10.5078659,146.260651 12.1689639,137.201885 12.618303,128.025744 C13.1073521,118.035719 11.1280407,108.649277 9.47082403,98.9248264 C8.67258323,94.2391921 7.90974363,89.5977685 6.35630439,85.1336672 C5.7273694,83.3259909 4.90736765,81.7307159 4.04759418,80.0614309 C3.55838288,79.1117083 2.56905129,77.4176151 3.20880772,76.3018223 Z" id="Thi-Succs!" fill="#C1DEE2"></path>
                    <path d="M31.2520927,60.6970481 C30.8556379,72.1418193 30.1720216,83.4997745 28.6461885,94.8239462 C27.0889362,106.380282 25.300327,117.896941 23.8019539,129.46349 C22.3433779,140.722452 20.8145443,152.168401 21.0183676,163.584496 C21.1684795,171.99346 19.7741408,186.218697 29.1133695,190.368969 C38.572085,194.57188 40.6010206,176.62338 41.2221153,170.699078 C42.4123367,159.332874 42.027006,147.846855 41.4493767,136.418583 C40.8563654,124.689401 39.8664321,113.01993 38.6395466,101.333567 C37.2768349,88.3528226 36.2076085,75.3135458 35.3494633,62.2958749 C34.92489,55.8569635 34.820295,49.4286586 34.9374389,42.9881759 C35.048171,36.9106701 34.8172608,30.7703111 32.6564941,25 C32.5432773,25.0821019 32.4308129,25.1642038 32.3175887,25.2459129" id="Thi-Succs!" fill="#69A1AC"></path>
                    <path d="M80.0827466,96.9552251 C78.3816844,99.4332953 76.6669438,101.887253 75.0605101,104.512188 C72.1861393,109.208575 69.5869207,114.431593 68.8049844,121.146824 C67.1686355,135.200365 68.4814231,150.378956 68.7982735,164.862679 C68.863082,167.822444 68.4887518,170.692884 69.6553203,173.509621 C70.713019,176.063863 72.6905254,178.01037 74.5755064,177.999958 C78.6108036,177.976942 77.9951288,168.09535 78.0017787,163.745849 C78.0139471,156.122577 77.1591232,148.422037 77.232697,140.805889 C77.3061571,133.260434 77.7650203,125.694154 78.8589994,118.527917 C79.96657,111.274547 81.5885624,104.309427 83.7291347,97.809562 C84.0261843,96.9075488 86.1579416,89.9374968 84.1438969,91.1387197" id="Thi-Succs!" fill="#89C5CC"></path>
                    <path d="M62.262195,22 C59.6091513,22 59.625416,35.2259973 59.5456053,36.9248132 C59.257379,43.055394 59.3250857,49.1876151 59.1427693,55.3194261 C58.7437159,68.7008304 58.2535042,82.1995075 56.243485,95.4263249 C55.1613125,102.546754 53.9066581,109.63561 52.557063,116.701913 C51.2036854,123.788718 49.3869518,130.866913 48.4965519,138.043518 C47.6417075,144.942523 48.1247324,151.977253 48.2419898,158.910292 C48.3592472,165.885155 48.5699324,172.87396 49.4837837,179.787726 C49.7092206,181.494333 49.9736172,183.194789 50.256548,184.891145 C50.4921976,186.304569 50.3548929,188.057511 50.7535682,189.400818 C51.3928102,191.552324 54.1328514,192.256371 55.9779537,191.920134 C60.9704721,191.008604 64.1594958,184.739838 65.8650239,180.159637 C68.0429859,174.311167 69.1985389,167.967363 70.3389619,161.803978 C71.6310631,154.821324 72.3883191,147.732059 72.7434956,140.623111 C73.4655743,126.17518 72.5388625,111.711667 71.5039711,97.310071 C70.928275,89.3006645 70.263312,81.3265219 69.2458201,73.3667309 C68.2324891,65.4409736 66.9324447,57.5504802 66.0859217,49.6013503 C65.4708876,43.8246382 64.8649315,38.0401352 64.4666346,32.2412807 C64.3713156,30.8586094 64.2911267,22 62.262195,22" id="Thi-Succs!" fill="#69A1AC"></path>
                    <path d="M58.9407927,118.138703 C58.5083549,104.252695 52.9265288,43.2589078 51.6565806,26.4671323 C51.3390091,22.2641696 48.2815387,4.76463908 47.8849122,-1.2490009e-14 C46.809561,1.346742 46.901454,22.3094454 46.9132785,27.1261944 C46.9257786,31.8908335 46.3348929,36.5764535 46.0308351,41.3154647 C45.7210339,46.1510074 38.5722965,108.600882 37.6445823,113.247206 C35.7989512,122.490734 34.5638007,131.976445 33.6110862,141.427558 C32.6830341,150.639478 31.2401108,160.357975 32.4820181,169.618161 C32.7674946,171.749969 33.2191894,173.847606 33.9546715,175.805999 C34.749276,177.922003 35.2938774,179.878687 35.9317231,182.09293 C36.9580872,185.659469 38.8148671,188.78948 41.667943,190.261798 C47.51734,193.280756 50.6582574,186.44667 52.2505069,180.496744 C54.7934439,170.994802 56.4255588,161.337812 57.190771,151.358766 C58.0374031,140.318301 59.2870808,129.255197 58.9407927,118.138703" id="Thi-Succs!" fill="#89C5CC"></path>
                </g>
                <g id="Planter" transform="translate(0.000000, 159.000000)">
                    <rect id="Vase" fill="#FFFFFF" x="10" y="0" width="91" height="91" rx="2"></rect>
                    <rect id="Leg" fill="#C5CFD6" x="0" y="10" width="10" height="113" rx="2"></rect>
                    <rect id="Leg" fill="#C5CFD6" x="50" y="10" width="10" height="113" rx="2"></rect>
                    <rect id="Leg" fill="#C5CFD6" x="101" y="10" width="10" height="113" rx="2"></rect>
                </g>
            </g>
        </g>
        <g id="Group-4" transform="translate(291.000000, 198.000000)">
            <g id="Group" transform="translate(177.901120, 263.740848) rotate(-2.000000) translate(-177.901120, -263.740848) translate(8.901120, 5.740848)">
                <g id="base">
                    <use fill="black" fill-opacity="1" filter="url(#filter-2)" xlink:href="#path-1"></use>
                    <use fill="#F2F2F2" fill-rule="evenodd" xlink:href="#path-1"></use>
                </g>
                <path d="M64,11 L64,15.0510368 C64,22.6559974 70.1650387,28.8210361 77.7699993,28.8210361 L173.193622,28.8210361 C180.798583,28.8210361 186.963622,22.6559974 186.963622,15.0510368 L186.963622,11 L214.974051,11 C228.39457,11 239.27405,21.87948 239.27405,35.2999987 L239.27405,480.018683 C239.27405,493.439201 228.39457,504.318681 214.974051,504.318681 L35.2999987,504.318681 C21.87948,504.318681 11,493.439201 11,480.018683 L11,35.2999987 C11,21.87948 21.87948,11 35.2999987,11 L64,11 Z" id="Screen" fill="#AFB9C5"></path>
                <g id="Illustration" transform="translate(19.000000, 0.000000)">
                    <mask id="mask-4" fill="white">
                        <use xlink:href="#path-3"></use>
                    </mask>
                    <g id="Mask"></g>
                    <g id="Group-2" mask="url(#mask-4)">
                        <g transform="translate(95.661351, 292.383540) rotate(14.000000) translate(-95.661351, -292.383540) translate(-178.838649, -79.116460)">
                            <g id="Head/Front/Pony" transform="translate(377.354010, 137.253248) rotate(32.000000) translate(-377.354010, -137.253248) translate(261.040537, 48.427003)">
                                <g id="Head" stroke-width="1" transform="translate(92.514706, 53.057692)" fill="#D4A181">
                                    <path d="M14.1552192,59.0311785 C6.26078598,49.7738933 0.917668434,38.4289628 1.81050651,25.7166422 C4.38302163,-10.9110929 55.4206444,-2.85345785 65.3485187,15.6330775 C75.276393,34.1196128 74.0967034,81.0122429 61.2658105,84.3163024 C56.1488681,85.6339568 45.2482594,82.4062312 34.1539829,75.7258314 L41.1176471,124.942308 L0,124.942308 L14.1552192,59.0311785 Z"></path>
                                </g>
                                <path d="M120.900825,109.513351 C115.802068,119.29077 108.750195,126.653846 101.70508,126.653846 C88.3234859,126.653846 78.8088235,108.780728 78.8088235,89.5640695 C78.8088235,88.8888966 78.8222148,88.2182152 78.8486367,87.5525431 C64.6932973,97.2566424 53.7839514,116.384615 35.0540713,116.384615 C9.57223819,116.384615 -0.547660075,65.0384615 35.0540713,65.0384615 C59.2659537,65.0384615 71.1756342,68.5650541 81.4394519,73.7800533 C83.4638107,68.0787287 86.5506243,63.2853134 90.3251842,59.9379079 C91.2332351,58.9167235 92.625379,57.9396891 94.4213995,57.0339285 C95.5194158,56.4337755 96.655668,55.9449748 97.8234652,55.577135 C104.013436,53.3046452 112.979223,51.7017937 122.994195,51.3524096 C124.86431,51.2871684 126.700982,51.2680771 128.492731,51.292127 C128.521891,41.8644069 136.181096,34.2307692 145.625,34.2307692 C155.086937,34.2307692 162.757353,41.8935879 162.757353,51.3461538 C162.757353,60.4876373 155.583494,67.9552358 146.553142,68.43685 C141.387326,70.0292272 134.750177,71.1983822 127.389646,71.6914089 C128.104278,74.3761949 128.492647,77.4262129 128.492647,80.8728661 C128.492647,83.9162258 128.156407,87.1438747 127.537275,90.4211092 C125.940863,88.5254787 123.806269,87.2884615 121.639706,87.2884615 C115.579023,87.2884615 111.360294,92.2692937 111.360294,97.5576923 C111.360294,104.269498 115.238868,109.124999 120.900825,109.513351 Z" id="hair" fill="#191847"></path>
                            </g>
                            <g id="Bottom/Standing/Skirt" transform="translate(0.546497, 333.278012)">
                                <path d="M166.567381,167.857834 C207.589166,179.340381 242.981522,185.081655 272.74445,185.081655 C302.507378,185.081655 330.152561,176.240195 355.68,158.557276 C315.536452,146.771486 282.476452,140.878592 256.5,140.878592 C230.523548,140.878592 200.546008,149.871673 166.567381,167.857834 Z" id="Skirt-Shadow" fill="#2F3676"></path>
                                <path d="M308.256289,201.632426 C307.860741,201.037336 307.526699,200.389997 307.261745,199.688776 C301.778469,185.176869 213.949873,28.6223567 205.2,0 L304.082609,0 C310.735262,21.761982 340.6782,158.328794 344.892158,185.575885 C358.187968,228.555222 385.562713,367.749603 389.057324,377.392564 C392.733596,387.536795 372.048435,398.104462 366.536326,385.633387 C357.765631,365.789801 336.867689,310.882956 327.562701,277.35722 C318.839295,245.926914 311.736113,217.650464 308.256289,201.632426 Z" id="Leg" fill="#D4A181"></path>
                                <path d="M227.356576,220.746362 C187.202786,230.902702 40.3286891,249.263568 30.2495453,252.143423 C19.881251,255.105896 10.7902408,233.718308 23.6060126,229.085394 C43.9980693,221.713645 100.187416,204.680905 134.25522,197.73018 C161.657298,192.139438 186.662031,187.577399 203.44955,184.90592 C202.02735,137.713963 195.526112,24.4605026 199.787315,1.42108547e-14 L287.28,1.42108547e-14 C283.193793,23.4559773 248.651292,194.604791 242.231076,211.736303 C240.193613,217.852368 234.114251,220.555217 227.356576,220.746362 L227.356576,220.746362 Z" id="Leg" fill="#BA8B72"></path>
                                <g id="Accessories/Shoe/Flat-Sneaker" transform="translate(41.895000, 268.673640) rotate(80.000000) translate(-41.895000, -268.673640) translate(-10.260000, 234.447699)" fill="#E4E4E4">
                                    <path d="M5.12288128,41.7336645 C2.84423912,47.5426929 1.70491803,51.8246848 1.70491803,54.5796404 C1.70491803,57.645227 2.21709963,62.1186802 3.24146282,68 C6.80804659,68 38.8615355,68 99.4019295,68 C101.900799,59.7626623 100.458307,55.3155888 95.0744521,54.6587794 C89.6905975,54.0019699 85.218138,53.4089236 81.6570736,52.8796404 L36.2987449,32.7170011 C35.7940747,32.4926655 35.2030988,32.7199217 34.9787633,33.2245919 C34.9752088,33.2325881 34.9717595,33.2406307 34.9684161,33.2487174 L31.8192486,40.8657816 C26.8352073,43.1845087 22.7851564,44.3438722 19.6690957,44.3438722 C16.8913141,44.3438722 12.9523133,43.1165339 7.85209321,40.6618573 L7.85208449,40.6618754 C6.85680042,40.1828567 5.66164191,40.6013725 5.18262326,41.5966566 C5.1610091,41.6415656 5.1410812,41.6872668 5.12288128,41.7336645 Z" id="shoe"></path>
                                </g>
                                <g id="Accessories/Shoe/Flat-Sneaker" transform="translate(355.680000, 340.548117)" fill="#E4E4E4">
                                    <path d="M5.12288128,41.7336645 C2.84423912,47.5426929 1.70491803,51.8246848 1.70491803,54.5796404 C1.70491803,57.645227 2.21709963,62.1186802 3.24146282,68 C6.80804659,68 38.8615355,68 99.4019295,68 C101.900799,59.7626623 100.458307,55.3155888 95.0744521,54.6587794 C89.6905975,54.0019699 85.218138,53.4089236 81.6570736,52.8796404 L36.2987449,32.7170011 C35.7940747,32.4926655 35.2030988,32.7199217 34.9787633,33.2245919 C34.9752088,33.2325881 34.9717595,33.2406307 34.9684161,33.2487174 L31.8192486,40.8657816 C26.8352073,43.1845087 22.7851564,44.3438722 19.6690957,44.3438722 C16.8913141,44.3438722 12.9523133,43.1165339 7.85209321,40.6618573 L7.85208449,40.6618754 C6.85680042,40.1828567 5.66164191,40.6013725 5.18262326,41.5966566 C5.1610091,41.6415656 5.1410812,41.6872668 5.12288128,41.7336645 Z" id="shoe"></path>
                                </g>
                                <path d="M200.07,7.10542736e-15 C238.625095,-11.0391309 275.105095,-11.0391309 309.51,7.10542736e-15 C321.48,54.6544958 350.565287,76.3469076 355.68,160.141342 C297.54,189.051649 225.72,139.522832 165.87,167.716202 C148.77,128.280723 172.71,33.3095728 200.07,7.10542736e-15 Z" id="Skirt" fill="#191847"></path>
                            </g>
                            <g id="Body/Jacket" transform="translate(286.697921, 336.258201) rotate(21.000000) translate(-286.697921, -336.258201) translate(67.754912, 176.541779)">
                                <path d="M331.997857,152.03252 L380.465131,199.174618 C394.567321,205.172177 406.122057,211.794694 415.129339,219.042169 C417.154942,221.478291 419.36014,226.146029 409.829779,224.057283 C400.299419,221.968538 390.180693,220.19884 388.389479,223.289026 C386.598265,226.379212 391.876223,231.114475 388.565838,235.158733 C386.358914,237.854905 378.936857,229.278909 366.299666,209.430746 L315.900112,179.804208 L331.997857,152.03252 Z M116.870596,158.680991 L152.624727,158.82118 C130.548201,229.877437 118.630157,267.579442 116.870596,271.927195 C112.911583,281.709638 121.289386,296.608131 124.872067,304.614469 C113.203394,309.820426 114.446704,290.540643 99.7269863,297.368546 C86.2915108,303.600738 76.071178,314.893054 60.5484274,305.343339 C58.6399965,304.169258 56.548667,299.74863 61.6015833,296.294143 C74.1902405,287.687757 92.3312581,272.625029 94.7823953,267.667016 C98.1249587,260.905879 105.487692,224.577204 116.870596,158.680991 Z" id="Skin" fill="#B28B67"></path>
                                <path d="M208.79602,15.7677718 L223.313895,11.9578473 C254.217972,72.9385885 303.543697,126.488598 371.291071,172.607877 L328.575861,234.663044 C258.920468,166.65 213.312431,94.1819697 208.79602,15.7677718 Z" id="Coat-Back" fill="#191847" transform="translate(290.043546, 123.310445) rotate(5.000000) translate(-290.043546, -123.310445) "></path>
                                <path d="M153.984375,194.470588 L285.726562,194.470588 C255.204925,120.478192 239.944107,57.6225285 239.944107,5.90359874 L200.203997,0 C168.972004,50.0819881 160.152007,111.743056 153.984375,194.470588 Z" id="Shirt" fill="#DDE3E9"></path>
                                <path d="M199.362603,0.0280103612 C199.367821,0.0186719508 199.373038,0.00933516358 199.378255,5.17840059e-16 L201.972326,-4.26356761e-14 C205.076356,0.10657182 209.804194,0.298582113 216.155837,0.57603088 L225.758474,27.9370307 C226.77422,61.2964861 232.706022,128.52479 243.553881,229.621942 L157.194233,229.621942 C157.420624,236.604306 157.793907,243.651893 158.314082,250.764706 L94.1015625,250.764706 C103.706623,142.720879 138.783101,59.1326433 199.330999,1.42108547e-14 L199.362603,0.0280103503 Z" id="Coat-Front" fill="#2F3676"></path>
                                <path d="M162.898753,140.279996 C165.356537,183.805228 171.510078,213.809935 181.359375,230.294118 L157.216474,230.294118 C156.159507,198.978987 158.0536,168.974315 162.898751,140.280008 Z" id="Shade" fill-opacity="0.1" fill="#000000"></path>
                                <polygon id="Light" fill-opacity="0.2" fill="#FFFFFF" points="176.416304 177.411765 219 157.673464 219 177.411765"></polygon>
                            </g>
                        </g>
                    </g>
                </g>
            </g>
            <g id="Group" transform="translate(327.500000, 372.500000) scale(-1, 1) translate(-327.500000, -372.500000) translate(174.000000, 151.000000)">
                <g id="Head/Front/Airy" transform="translate(110.762628, 77.514119) rotate(-27.000000) translate(-110.762628, -77.514119) translate(42.762628, 25.514119)">
                    <g id="Head" stroke-width="1" transform="translate(54.000000, 31.000000)" fill="#B28B67">
                        <path d="M8.26227388,34.4901268 C3.65436435,29.0813759 0.535634794,22.4528771 1.05677633,15.0254539 C2.55833022,-6.37502057 32.3485306,-1.66718886 38.1433414,9.13393292 C43.9381521,19.9350547 43.249578,47.3329958 35.7603014,49.2634576 C32.7735882,50.033323 26.4110012,48.1474609 19.935372,44.244306 L24,73 L0,73 L8.26227388,34.4901268 Z"></path>
                    </g>
                    <path d="M78.46395,27.6852568 C75.3008195,27.1665378 66.7839511,26.8099042 65.2132884,26.8101344 C64.2095609,26.8101344 63.1218259,27.0394482 62.5273474,26.1178184 C62.0405177,25.3631089 62.2188613,24.0866873 62.0735698,23.2108742 C61.9048664,22.1934668 61.6652388,21.1891827 61.4228569,20.1874312 C60.7331241,17.3368945 59.6901472,14.6249591 58.2308058,12.0787928 C55.4925323,7.30188179 51.4810649,3.56010629 46.4167508,1.38277606 C40.824292,-1.02133542 34.4959652,-1.57182675 28.4804855,-1.08418951 C22.0431327,-0.562477519 16.2158664,1.56258942 10.137955,3.56240864 C4.34603603,5.46806184 -1.7203989,6.21816672 -7.77811175,5.28755777 C-13.8815008,4.35004179 -18.4931849,1.0420286 -23.6412768,-2.09768297 C-28.9114778,-5.31199061 -34.9343023,-7.4142643 -41.1646205,-6.93100152 C-46.9804104,-6.47974137 -52.3405866,-4.0783927 -57.1496651,-0.870531642 C-61.6491098,2.13080883 -65.3617312,5.74181098 -67.4577843,10.8240133 C-69.7126711,16.2909379 -69.7106053,22.291777 -66.0025745,27.1232537 C-60.627938,34.1265349 -50.6501101,35.9375616 -42.3489869,35.7575181 C-37.5474828,35.6536822 -32.8318224,34.7771784 -28.298637,33.1828026 C-22.2530892,31.0563543 -17.0287938,27.4522592 -11.3729852,24.5280473 C-8.71871903,23.1558481 -5.97516638,22.0288489 -3.09940537,21.2170411 C-0.308799399,20.4289475 2.43980288,20.0674789 4.96645123,21.7532579 C7.63930914,23.5366564 10.0344377,25.2885128 13.0922147,26.4049212 C16.0255874,27.4759733 19.132713,28.0750442 22.2579713,28.0508696 C28.338637,28.0039017 34.3327705,26.1092997 40.2385356,24.8402457 C45.0544999,23.8055706 50.2074119,22.7743491 55.1172534,23.7689633 C57.1660236,24.1840766 60.1586146,25.0410104 60.8986141,27.1702216 C48.4441749,29.4274433 43.5527072,44.8301494 47.0638027,56.1372093 C48.958789,62.2400423 60.3498117,69.3741897 64.7787912,66.1658382 C67.5846772,64.1332552 65.881216,61.4648419 64.7787912,59.7033156 C62.6675892,56.3299158 61.9452634,51.9966672 65.8518364,49.6480423 C69.2215424,47.6224367 72.7645562,52.4327123 72.8315785,52.4274169 C73.7577255,52.3544325 81.7604403,47.8285457 87.2741651,41.224129 C92.7134751,41.5465656 93.5386971,37.9600245 92.2398964,35.026908 C90.9410957,32.0937915 82.8343998,28.4024381 78.46395,27.6852568 Z" id="hair" fill="#2F3676"></path>
                </g>
                <g id="Bottom/Standing/Baggy-Pants" transform="translate(7.000000, 204.000000)">
                    <polygon id="Leg" fill="#997659" points="134 0 183.081639 124.226909 216.000898 229.25029 229 229.25029 178.673688 5.090379e-13"></polygon>
                    <path d="M124.116628,0 C123.593979,43.6541888 115.971833,102.427468 114.754071,105.148648 C113.942229,106.962768 85.9161573,130.032465 30.6758546,174.357739 L39.6290713,183.938736 C104.807511,145.935376 138.9048,124.399339 141.920937,119.330628 C146.445143,111.72756 161.1744,41.763137 173,0 L124.116628,0 Z" id="Leg" fill="#B28B67"></path>
                    <g id="Accessories/Shoe/Flat-Sneaker" transform="translate(51.500000, 189.000000) rotate(50.000000) translate(-51.500000, -189.000000) translate(21.000000, 169.000000)" fill="#E4E4E4">
                        <path d="M2.67813181,25.4019242 C1.55937727,28.3884109 1,30.6229931 1,32.1056708 C1,33.908957 1.3004142,36.5404001 1.90124261,40 C3.99318117,40 22.7937852,40 58.3030548,40 C59.768738,35.1545073 58.9226607,32.5385816 55.7648228,32.1522232 C52.606985,31.7658647 49.9837155,31.4170139 47.8950143,31.1056708 L21.6799926,19.4188835 C21.1755635,19.1940064 20.584344,19.4206282 20.359467,19.9250573 C20.35562,19.9336867 20.3518954,19.9423702 20.3482945,19.9511052 L18.6632131,24.038695 C15.7398812,25.4026522 13.3643706,26.0846307 11.5366811,26.0846307 C10.0517269,26.0846307 8.00099246,25.4849054 5.38447792,24.2854549 L5.38448339,24.285443 C4.38038273,23.8251478 3.19325534,24.2659892 2.73296014,25.2700899 C2.71312074,25.3133681 2.69483298,25.3573409 2.67813181,25.4019242 Z" id="shoe"></path>
                    </g>
                    <g id="Accessories/Shoe/Flat-Sneaker" transform="translate(208.000000, 199.000000)" fill="#E4E4E4">
                        <path d="M2.67813181,25.4019242 C1.55937727,28.3884109 1,30.6229931 1,32.1056708 C1,33.908957 1.3004142,36.5404001 1.90124261,40 C3.99318117,40 22.7937852,40 58.3030548,40 C59.768738,35.1545073 58.9226607,32.5385816 55.7648228,32.1522232 C52.606985,31.7658647 49.9837155,31.4170139 47.8950143,31.1056708 L21.6799926,19.4188835 C21.1755635,19.1940064 20.584344,19.4206282 20.359467,19.9250573 C20.35562,19.9336867 20.3518954,19.9423702 20.3482945,19.9511052 L18.6632131,24.038695 C15.7398812,25.4026522 13.3643706,26.0846307 11.5366811,26.0846307 C10.0517269,26.0846307 8.00099246,25.4849054 5.38447792,24.2854549 L5.38448339,24.285443 C4.38038273,23.8251478 3.19325534,24.2659892 2.73296014,25.2700899 C2.71312074,25.3133681 2.69483298,25.3573409 2.67813181,25.4019242 Z" id="shoe"></path>
                    </g>
                    <polygon id="Pant" fill="#69A1AC" points="167 218.432889 228.804464 211.725327 183 2.84217094e-14 127.644073 2.84217094e-14"></polygon>
                    <path d="M43.4599581,158.900479 L84,206.885961 C126.699953,160.249961 151.594137,129.819963 158.682552,115.595966 C165.770967,101.37197 172.143091,62.839981 177.798925,0 L115.478146,0 C112.388642,55.2838742 110.306102,84.2121259 109.230525,86.7847551 C108.154948,89.3573843 86.2314253,113.395959 43.4599581,158.900479 Z" id="Pant" fill="#89C5CC"></path>
                </g>
                <g id="Body/Jacket-2" transform="translate(147.288204, 196.692459) rotate(-14.000000) translate(-147.288204, -196.692459) translate(19.288204, 103.192459)">
                    <path d="M198,77.6170876 L234.234567,61.7041739 C240.582018,55.3790221 246.711387,50.5716141 252.622674,47.2819501 C254.390261,46.7192094 257.410101,46.5491987 254.188168,51.2551684 C250.966235,55.961138 247.78889,61.0560141 249.076289,62.7052963 C250.363689,64.3545786 254.093006,62.5342201 255.566345,65.2162765 C256.548571,67.0043141 250.262286,69.1431805 236.707491,71.6328758 L209.56994,92.4392868 L198,77.6170876 Z M51.5082829,82 L72,86.0658446 C51.3920824,124.471059 40.3404263,144.825845 38.8450319,147.130202 C35.4803944,152.315007 38.6196693,161.817238 39.7793043,166.821179 C32.5044044,168.51462 35.3734014,157.565005 26.1671562,159.851185 C17.7641225,161.937904 10.6393632,167.293169 2.8038784,160.07074 C1.84055159,159.182785 1.13535082,156.407288 4.41981989,154.983749 C12.6026301,151.437195 24.6920431,144.796343 26.6523424,142.218096 C29.3255608,138.702197 37.6108743,118.629498 51.5082829,82 Z" id="Skin" fill="#B28B67"></path>
                    <path d="M123.280247,9.87718027 L131.765198,7.64600959 C152.120135,24.2050747 163.602366,67.2616718 176.61267,71.9556463 C188.913385,76.3936093 205.208593,69.6320097 224.503164,60.7390322 L231.796052,73.8353428 C215.409826,95.0000245 178.298612,114.916545 161.84294,106.839809 C135.533742,93.9267871 125.046804,40.501408 123.280247,9.87718027 Z" id="Coat-Back" fill="#DB2721" transform="translate(177.538150, 58.161768) rotate(5.000000) translate(-177.538150, -58.161768) "></path>
                    <path d="M90,114 C124.671756,114 150.175573,114 166.511451,114 C170.007634,114 169.348845,108.951637 168.84345,106.404206 C163.010588,77.0037663 140.241304,45.3115155 140.241304,3.4607303 L118.1718,0 C99.917485,29.3584068 93.6048263,65.5045499 90,114 Z" id="Shirt" fill="#DDE3E9"></path>
                    <path d="M82.3687546,84.2331696 C66.7713811,112.367832 53.6609446,132.623442 43.0374452,145 L27,141.85882 C37.3305927,77.7906722 67.2466105,30.5043988 116.748053,3.81764932e-14 L117,2.9470116e-14 L125.486398,0 C145.298923,67.5369477 150.760885,112.536948 141.872285,135 L73,135 C74.0896281,118.56345 77.5833963,101.181199 82.3687561,84.2331662 Z" id="Coat-Front" fill="#FF4133"></path>
                </g>
            </g>
        </g>
    </g>
</svg>